<?xml version="1.0" encoding="UTF-8" standalone="no"?>
<!-- Generator: Adobe Illustrator 26.3.1, SVG Export Plug-In . SVG Version: 6.00 Build 0)  -->

<svg
        version="1.1"
        id="Layer_1"
        width="39.831234"
        height="39.821991"
        viewBox="-1 -1 79.662463 79.64398"
        xml:space="preserve"
        sodipodi:docname="pluginIcon_dark.svg"
        inkscape:version="1.2 (dc2aeda, 2022-05-15)"
        xmlns:inkscape="http://www.inkscape.org/namespaces/inkscape"
        xmlns:sodipodi="http://sodipodi.sourceforge.net/DTD/sodipodi-0.dtd"
        xmlns="http://www.w3.org/2000/svg"
><defs
   id="defs223" /><sodipodi:namedview
   id="namedview221"
   pagecolor="#ffffff"
   bordercolor="#000000"
   borderopacity="0.25"
   inkscape:showpageshadow="2"
   inkscape:pageopacity="0.0"
   inkscape:pagecheckerboard="0"
   inkscape:deskcolor="#d1d1d1"
   showgrid="false"
   inkscape:zoom="5.9060988"
   inkscape:cx="32.42411"
   inkscape:cy="21.587854"
   inkscape:window-width="1920"
   inkscape:window-height="1027"
   inkscape:window-x="0"
   inkscape:window-y="65"
   inkscape:window-maximized="1"
   inkscape:current-layer="g216" />
<g
   transform="matrix(0.93346828,0,0,0.95680357,-36.89674,24.72969)"
   id="g218"
   style="stroke-width:1.05813">
	<g
   id="g216"
   style="display:inline;stroke-width:1.09418"
   transform="matrix(0.93518992,0,0,1,3.6672877,1.8693881)">
		<g
   id="g184"
   style="display:inline;stroke-width:0.366205;stroke-dasharray:none"
   transform="matrix(1.3989573,0,0,1.3126932,-14.960278,8.9100556)">
			<path
   style="fill:#40a4e5;fill-opacity:1;stroke:#000000;stroke-width:0.366205;stroke-miterlimit:11.3386;stroke-dasharray:none"
   d="M 37.5,21.9 52.371334,19.556037 54.6,32.8 l -14.8,1 z"
   id="path132"
   sodipodi:nodetypes="ccccc" />
			<path
   style="fill:#5e9cc3;fill-opacity:1;stroke:#000000;stroke-width:0.366205;stroke-miterlimit:11.3386;stroke-dasharray:none"
   d="M 65.131472,19.920731 69.9,34.5 54.9,32.8 52.671334,19.556037 Z"
   id="path134"
   sodipodi:nodetypes="ccccc" />
			<path
   style="fill:#5088ac;fill-opacity:1;stroke:#000000;stroke-width:0.366205;stroke-miterlimit:11.3386;stroke-dasharray:none"
   d="m 84.2,18.3 v 14.5 l -14,1.7 -4.768528,-14.579269 z"
   id="path136"
   sodipodi:nodetypes="ccccc" />
			
			<path
   style="fill:#7da5bf;fill-opacity:1;stroke:#000000;stroke-width:0.366205;stroke-miterlimit:11.3386;stroke-dasharray:none"
   d="M 84.5,18.3 101.29843,18.720446 100,34.5 84.5,32.8 Z"
   id="path140"
   sodipodi:nodetypes="ccccc" />
			<path
   style="fill:#60acdc;fill-opacity:1;stroke:#000000;stroke-width:0.366205;stroke-miterlimit:11.3386;stroke-dasharray:none"
   d="M 38.9,6.5 51.995183,8.0339824 52.371334,19.356037 37.5,21.7 Z"
   id="path142"
   sodipodi:nodetypes="ccccc" />
			<path
   style="fill:#3a82bd;fill-opacity:1;stroke:#000000;stroke-width:0.366205;stroke-miterlimit:11.3386;stroke-dasharray:none"
   d="M 64.607605,3.4141246 65.131472,19.620731 52.671334,19.256037 52.295183,7.9339824 Z"
   id="path144"
   sodipodi:nodetypes="ccccc" />
			
			<path
   style="fill:#376380;fill-opacity:1;stroke:#000000;stroke-width:0.366205;stroke-miterlimit:11.3386;stroke-dasharray:none"
   d="M 87,1.8 84.2,18 65.331472,19.620731 64.807605,3.4141246 Z"
   id="path148"
   sodipodi:nodetypes="ccccc" />
			<path
   style="fill:#3486bb;fill-opacity:1;stroke:#000000;stroke-width:0.366205;stroke-miterlimit:11.3386;stroke-dasharray:none"
   d="m 87.3,1.8 14.82943,2.8926044 -0.831,13.7278416 L 84.5,18 Z"
   id="path150"
   sodipodi:nodetypes="ccccc" />
			<path
   style="fill:#75a4c1;fill-opacity:1;stroke:#000000;stroke-width:0.366205;stroke-miterlimit:11.3386;stroke-dasharray:none"
   d="M 84.2,-11.4 87,1.5 64.907605,3.1141246 67.167632,-8.5383217 Z"
   id="path152"
   sodipodi:nodetypes="ccccc" />
			<path
   style="fill:#5f9ec6;fill-opacity:1;stroke:#000000;stroke-width:0.366205;stroke-miterlimit:11.3386;stroke-dasharray:none"
   d="m 84.5,-11.4 15.63777,0.306538 1.99167,15.4860664 L 87.3,1.5 Z"
   id="path154"
   sodipodi:nodetypes="ccccc" />
			
			<path
   style="fill:#5088ac;fill-opacity:1;stroke:#000000;stroke-width:0.366205;stroke-miterlimit:11.3386;stroke-dasharray:none"
   d="M 84.3,-11.5 Z"
   id="path158" />
			<path
   style="fill:#7dc1ec;fill-opacity:1;stroke:#000000;stroke-width:0.366205;stroke-miterlimit:11.3386;stroke-dasharray:none"
   d="M 48.878861,-9.2589571 51.995183,7.6339824 38.9,6.2 38.206451,-9.3 Z"
   id="path160"
   sodipodi:nodetypes="ccccc" />
			<path
   style="fill:#82b0cf;fill-opacity:1;stroke:#000000;stroke-width:0.366205;stroke-miterlimit:11.3386;stroke-dasharray:none"
   d="M 49.178861,-9.2589571 66.867632,-8.5383217 64.607605,3.1141246 52.295183,7.6339824 Z"
   id="path162"
   sodipodi:nodetypes="ccccc" />
			<path
   style="fill:#6698b8;fill-opacity:1;stroke:#000000;stroke-width:0.366205;stroke-miterlimit:11.3386;stroke-dasharray:none"
   d="M 69.7,-28.484808 84.2,-26.2 v 14.5 l -17.032368,2.8616787 z"
   id="path164"
   sodipodi:nodetypes="ccccc" />
			<path
   style="fill:#5f8faf;fill-opacity:1;stroke:#000000;stroke-width:0.366205;stroke-miterlimit:11.3386;stroke-dasharray:none"
   d="M 102.30322,-28.30771 100.13777,-11.393462 84.5,-11.7 v -14.5 z"
   id="path166"
   sodipodi:nodetypes="ccccc" />
			
			<path
   style="fill:#5c8ebc;fill-opacity:1;stroke:#000000;stroke-width:0.366205;stroke-miterlimit:11.3386;stroke-dasharray:none"
   d="M 52.070993,-26.211337 69.4,-28.484808 66.867632,-8.8383213 49.178861,-9.5589571 Z"
   id="path170"
   sodipodi:nodetypes="ccccc" />
			<path
   style="fill:#3588d8;fill-opacity:1;stroke:#000000;stroke-width:0.366205;stroke-miterlimit:11.3386;stroke-dasharray:none"
   d="M 51.770993,-26.211337 48.878861,-9.5589571 38.206451,-9.6 39.25806,-27.261451 Z"
   id="path172"
   sodipodi:nodetypes="ccccc" />
			
			
			
			
			
		<g
   id="g967"
   style="display:inline" /></g>
		
	<g
   id="g7217"
   transform="matrix(1.1230854,0,0,1.1365192,-113.77652,0.27491358)"
   style="stroke-width:0.968486"><path
     id="text4575"
     style="font-size:48.0333px;font-family:'Comic White Rabbit';-inkscape-font-specification:'Comic White Rabbit, Normal';fill:#000000;fill-opacity:0.742382;stroke:none;stroke-width:0;stroke-dasharray:none;paint-order:markers stroke fill"
     sodipodi:type="inkscape:offset"
     inkscape:radius="-0.58943129"
     inkscape:original="M 124.25586 -26.150391 C 120.45635 -26.150391 117.08602 -24.463279 114.14648 -21.085938 C 111.19131 -17.646053 109.65828 -12.916283 109.54883 -6.8964844 L 109.54883 -6.1210938 C 109.54883 -0.32019735 110.99604 4.1891733 113.88867 7.4101562 C 114.25874 7.8396522 114.67038 8.2633062 115.13086 8.6777344 C 117.80459 11.632908 121.05789 13.111328 124.88867 13.111328 C 128.56309 13.111328 131.51018 11.835751 133.73047 9.2871094 C 136.07584 6.5664733 137.24805 2.7904587 137.24805 -2.0410156 C 137.24805 -4.2613048 136.63172 -6.1766179 135.39648 -7.7871094 C 134.96557 -8.337345 134.51973 -8.8010159 134.05859 -9.1699219 C 133.22989 -10.201887 132.29954 -10.898188 131.26758 -11.257812 C 132.50281 -11.351628 133.58139 -11.782672 134.50391 -12.548828 C 135.48896 -13.440071 135.98242 -14.651281 135.98242 -16.183594 C 135.98242 -18.52897 134.99746 -20.530101 133.02734 -22.1875 C 132.62081 -22.687847 132.11175 -23.181305 131.50195 -23.666016 C 129.37548 -25.323415 126.96086 -26.150391 124.25586 -26.150391 z M 146.13672 -25.306641 C 143.5099 -25.306641 141.54777 -23.555162 140.25 -20.052734 C 139.29621 -17.316462 138.75595 -13.587258 138.63086 -8.8652344 C 138.61522 -8.4743384 138.60742 -7.8736105 138.60742 -7.0605469 C 138.60742 -3.5268472 138.87463 -0.27354385 139.40625 2.6972656 C 140.10986 6.3404162 141.36008 8.8642588 143.1582 10.271484 C 143.72109 10.959461 144.30037 11.484126 144.89453 11.84375 C 146.30176 12.688085 148.76319 13.111328 152.28125 13.111328 C 155.54914 13.111328 158.10614 12.594465 159.95117 11.5625 C 162.49981 10.139639 163.77344 7.7308678 163.77344 4.3378906 C 163.77344 2.5866766 163.1103 1.1804246 161.78125 0.1171875 L 161.61719 0 C 161.32011 -0.39089598 160.98268 -0.74392384 160.60742 -1.0566406 C 159.32528 -2.088606 157.70058 -2.6035156 155.73047 -2.6035156 C 155.04249 -2.6035156 154.393 -2.548904 153.7832 -2.4394531 C 154.01774 -4.3470255 154.13477 -6.3013469 154.13477 -8.3027344 C 154.13477 -8.7874454 154.11916 -9.4837463 154.08789 -10.390625 C 153.93153 -14.58103 153.28984 -17.855785 152.16406 -20.216797 C 151.49172 -21.577115 150.7174 -22.585482 149.8418 -23.242188 C 148.77856 -24.618141 147.54394 -25.306641 146.13672 -25.306641 z M 124.25586 -23.806641 C 126.41361 -23.806641 128.34452 -23.141546 130.04883 -21.8125 C 131.65932 -20.545997 132.46289 -19.059775 132.46289 -17.355469 C 132.46289 -16.526769 132.23664 -15.910438 131.7832 -15.503906 C 131.25158 -15.034831 130.59625 -14.791026 129.81445 -14.775391 C 129.40792 -14.775391 128.93007 -14.917774 128.38281 -15.199219 C 127.39775 -15.715201 126.20995 -15.972656 124.81836 -15.972656 C 123.58313 -15.972656 122.49674 -15.401182 121.55859 -14.259766 C 120.71426 -13.243436 120.08037 -11.923002 119.6582 -10.296875 C 119.25167 -8.7489269 119.04883 -7.2939118 119.04883 -5.9335938 C 119.04883 -4.0729289 119.4077 -2.3526573 120.12695 -0.7734375 C 120.72112 0.52433717 121.55785 1.4234813 122.63672 1.9238281 C 123.26215 2.2365449 123.89604 2.3925781 124.53711 2.3925781 C 124.8811 2.3925781 125.22437 2.3457682 125.56836 2.2519531 C 126.53778 2.0174155 127.24969 1.5239578 127.70312 0.7734375 C 127.9533 0.38254152 128.07812 -0.046549819 128.07812 -0.515625 C 128.07813 -0.96906434 127.9455 -1.4391171 127.67969 -1.9238281 C 127.49206 -2.2365449 127.0064 -2.7436529 126.22461 -3.4472656 C 125.39591 -4.2134218 124.80298 -4.8004994 124.44336 -5.2070312 C 123.83356 -5.9419157 123.52734 -6.5523984 123.52734 -7.0371094 C 123.52734 -7.459277 123.77115 -7.8415584 124.25586 -8.1855469 C 125.22528 -8.9047955 126.89679 -9.2636719 129.27344 -9.2636719 C 130.46176 -9.2636719 131.49353 -8.686349 132.36914 -7.5292969 C 133.27602 -6.3409731 133.73047 -4.9015613 133.73047 -3.2128906 C 133.73047 1.0400577 132.75331 4.2992095 130.79883 6.5664062 C 129.04761 8.5834295 126.68565 9.5917969 123.71484 9.5917969 C 120.54077 9.5917969 117.84529 8.341578 115.625 5.8398438 C 113.1389 3.0723002 111.89453 -0.91435925 111.89453 -6.1210938 L 111.89453 -6.8730469 C 112.00398 -12.329955 113.34977 -16.558466 115.92969 -19.560547 C 118.38451 -22.390634 121.15996 -23.806641 124.25586 -23.806641 z M 146.13672 -22.960938 C 147.12178 -22.960938 148.03652 -22.100802 148.88086 -20.380859 C 149.85028 -18.363836 150.41395 -15.401147 150.57031 -11.492188 C 150.60158 -10.585309 150.61719 -9.914366 150.61719 -9.4765625 C 150.61719 -6.8653773 150.42215 -4.3863915 150.03125 -2.0410156 C 149.84362 -0.89959935 149.65443 0.3662228 149.4668 1.7578125 L 152.30469 0.46875 C 153.36792 -0.01596102 154.51087 -0.2578125 155.73047 -0.2578125 C 157.13769 -0.2578125 158.27869 0.085460568 159.1543 0.7734375 C 159.88918 1.3675994 160.25586 2.1653219 160.25586 3.1660156 C 160.25586 5.6364782 159.38012 7.3645515 157.62891 8.3496094 C 156.1435 9.1783089 153.97073 9.5917969 151.10938 9.5917969 C 148.06039 9.5917969 146.00464 9.2797304 144.94141 8.6542969 C 143.42473 7.6848748 142.34615 5.5511152 141.70508 2.2519531 C 141.20473 -0.51559044 140.95312 -3.6206622 140.95312 -7.0605469 C 140.95312 -7.8110672 140.96093 -8.3805884 140.97656 -8.7714844 C 141.10165 -13.321514 141.59511 -16.816668 142.45508 -19.255859 C 143.37759 -21.726322 144.60441 -22.960938 146.13672 -22.960938 z M 125.99023 -12.455078 C 127.00656 -12.455078 127.83549 -12.281488 128.47656 -11.9375 C 128.63292 -11.843685 128.86697 -11.734462 129.17969 -11.609375 C 126.94376 -11.578103 125.18448 -11.273839 123.90234 -10.695312 C 124.0587 -10.976758 124.2713 -11.273221 124.53711 -11.585938 C 125.00618 -12.164464 125.48989 -12.455078 125.99023 -12.455078 z M 122.61328 -3.7285156 L 122.66016 -3.6816406 C 122.98851 -3.2751088 123.47416 -2.7680009 124.11523 -2.1582031 C 124.59995 -1.6422204 125.12266 -1.1331594 125.68555 -0.6328125 L 125.73242 -0.515625 C 125.73242 -0.48435332 125.72462 -0.46094834 125.70898 -0.4453125 C 125.5839 -0.25768243 125.34205 -0.11725254 124.98242 -0.0234375 C 124.82606 0.023470018 124.67783 0.046875 124.53711 0.046875 C 124.24003 0.046875 123.94161 -0.031141606 123.64453 -0.1875 L 123.62109 -0.1875 C 123.52728 -0.34385839 123.46487 -0.46868496 123.43359 -0.5625 C 122.98015 -1.5006504 122.7071 -2.5558277 122.61328 -3.7285156 z M 121.06445 14.369141 C 118.17182 14.369141 115.63238 15.494533 113.44336 17.746094 C 111.28561 19.90384 110.20703 22.515454 110.20703 25.580078 C 110.20703 27.487651 110.62052 29.184517 111.44922 30.669922 L 111.42578 30.599609 C 111.66032 31.068685 112.41123 31.911264 113.67773 33.130859 C 114.17808 33.662478 114.85098 34.311969 115.69531 35.078125 L 118.27344 37.494141 L 118.67383 37.916016 C 119.81524 39.229426 120.40037 40.112967 120.43164 40.566406 C 120.38473 40.488227 119.87763 40.449219 118.9082 40.449219 C 118.23586 40.449219 117.29771 40.285384 116.09375 39.957031 C 114.57707 39.550499 113.40292 39.347656 112.57422 39.347656 C 110.5572 39.347656 109.54883 40.465247 109.54883 42.701172 C 109.54883 45.093455 110.54939 47.149198 112.55078 48.869141 C 113.44202 49.948014 114.68639 50.909571 116.28125 51.753906 L 116.25781 51.753906 C 118.91591 53.192403 121.42414 53.912109 123.78516 53.912109 C 126.66215 53.912109 129.21135 52.786717 131.43164 50.535156 L 131.43164 50.558594 C 133.93337 48.056859 135.18359 45.37503 135.18359 42.513672 C 135.18359 39.949394 134.15182 37.33778 132.08789 34.679688 C 131.24356 33.632086 129.85291 32.145864 127.91406 30.222656 C 127.35117 29.628494 126.71728 28.99656 126.01367 28.324219 C 125.96676 28.308583 125.93556 28.277376 125.91992 28.230469 C 125.41958 27.730122 125.12311 27.377094 125.0293 27.173828 C 125.0293 27.080013 125.0215 27.001996 125.00586 26.939453 C 125.00586 26.595465 125.06827 26.33801 125.19336 26.166016 C 125.31845 26.072201 125.46668 26.025391 125.63867 26.025391 C 126.07648 26.025391 126.64795 26.165821 127.35156 26.447266 C 128.8057 27.025792 129.90768 27.314453 130.6582 27.314453 C 131.72144 27.314453 132.54257 26.916568 133.12109 26.119141 C 133.49635 25.540615 133.68359 24.820909 133.68359 23.960938 C 133.68359 22.037729 132.83906 20.247243 131.15039 18.589844 L 130.70508 18.214844 L 129.97852 17.417969 C 127.74259 15.38531 124.77015 14.369141 121.06445 14.369141 z M 147.77734 15.494141 C 145.15052 15.494141 143.1884 17.245619 141.89062 20.748047 C 140.93684 23.484319 140.39852 27.213523 140.27344 31.935547 C 140.2578 32.326443 140.25 32.929124 140.25 33.742188 C 140.25 37.275887 140.51526 40.527237 141.04688 43.498047 C 141.75049 47.141197 143.00071 49.666993 144.79883 51.074219 C 145.36172 51.762196 145.94099 52.284907 146.53516 52.644531 C 147.94238 53.488867 150.40576 53.912109 153.92383 53.912109 C 157.19172 53.912109 159.74677 53.395247 161.5918 52.363281 C 164.14044 50.94042 165.41602 48.533602 165.41602 45.140625 C 165.41602 43.389411 164.75092 41.981206 163.42188 40.917969 L 163.25781 40.800781 C 162.96073 40.409885 162.62526 40.058811 162.25 39.746094 C 160.96786 38.714128 159.34121 38.197266 157.37109 38.197266 C 156.68312 38.197266 156.03363 38.251877 155.42383 38.361328 C 155.65837 36.453756 155.77539 34.499434 155.77539 32.498047 C 155.77539 32.013336 155.75979 31.318988 155.72852 30.412109 C 155.57216 26.221704 154.93242 22.944996 153.80664 20.583984 C 153.1343 19.223666 152.35998 18.215299 151.48438 17.558594 C 150.42114 16.18264 149.18457 15.494141 147.77734 15.494141 z M 121.06445 16.714844 C 124.22289 16.714844 126.65507 17.520368 128.35938 19.130859 C 129.56333 20.25664 130.16602 21.475652 130.16602 22.789062 C 130.16602 23.164323 130.1036 23.452984 129.97852 23.65625 C 129.91597 23.750065 129.75018 23.796875 129.48438 23.796875 C 129.07784 23.796875 128.27427 23.562825 127.07031 23.09375 C 126.10089 22.702854 125.23295 22.507812 124.4668 22.507812 C 123.65373 22.507812 122.95743 22.780871 122.37891 23.328125 C 121.78474 23.953559 121.48828 24.798091 121.48828 25.861328 L 121.51172 26.189453 C 121.60553 26.955609 122.56709 28.221431 124.39648 29.988281 C 126.67932 32.224206 128.2338 33.874263 129.0625 34.9375 C 130.79808 37.157789 131.66602 39.291549 131.66602 41.339844 C 131.66602 43.544497 130.64204 45.672408 128.59375 47.720703 C 126.84254 49.503189 124.84921 50.394531 122.61328 50.394531 C 120.6588 50.394531 118.52504 49.768445 116.21094 48.517578 C 113.33394 46.96963 111.89453 45.030912 111.89453 42.701172 C 111.89453 42.028831 112.12078 41.693359 112.57422 41.693359 C 113.19965 41.693359 114.16901 41.864996 115.48242 42.208984 C 116.88965 42.59988 118.0326 42.794922 118.9082 42.794922 C 121.48812 42.794922 122.77734 42.051811 122.77734 40.566406 C 122.77734 39.503169 121.99522 38.096917 120.43164 36.345703 C 119.55603 35.376281 118.11857 33.983679 116.11719 32.169922 C 114.52233 30.684517 113.65439 29.808778 113.51367 29.542969 C 112.8726 28.385917 112.55078 27.065483 112.55078 25.580078 C 112.55078 23.172159 113.41092 21.108614 115.13086 19.388672 C 116.86644 17.606186 118.84416 16.714844 121.06445 16.714844 z M 147.77734 17.839844 C 148.7624 17.839844 149.67715 18.69998 150.52148 20.419922 C 151.49091 22.436945 152.05458 25.399634 152.21094 29.308594 C 152.24221 30.215472 152.25781 30.888368 152.25781 31.326172 C 152.25781 33.937357 152.06277 36.41439 151.67188 38.759766 C 151.48424 39.901182 151.29701 41.168957 151.10938 42.560547 L 153.94727 41.269531 C 155.0105 40.78482 156.1515 40.542969 157.37109 40.542969 C 158.77832 40.542969 159.91931 40.886242 160.79492 41.574219 C 161.52981 42.168381 161.89648 42.966103 161.89648 43.966797 C 161.89648 46.437259 161.0227 48.165333 159.27148 49.150391 C 157.78608 49.97909 155.61136 50.394531 152.75 50.394531 C 149.70101 50.394531 147.64527 50.080512 146.58203 49.455078 C 145.06535 48.485656 143.98677 46.351896 143.3457 43.052734 C 142.84536 40.285191 142.5957 37.182072 142.5957 33.742188 C 142.5957 32.991667 142.6035 32.420193 142.61914 32.029297 C 142.74423 27.479268 143.23573 23.984113 144.0957 21.544922 C 145.01822 19.074459 146.24503 17.839844 147.77734 17.839844 z "
     d="m 124.25586,-25.560547 c -3.62503,0 -6.80718,1.57896 -9.66406,4.861328 -2.84567,3.313577 -4.34542,7.888329 -4.45313,13.8125002 v 0.765625 c 0,5.70286213 1.41426,10.0464971 4.18945,13.1367188 a 0.58949023,0.58949023 0 0 1 0.008,0.00977 c 0.35409,0.4109576 0.74761,0.8171888 1.18945,1.2148438 a 0.58949023,0.58949023 0 0 1 0.043,0.042969 c 2.57975,2.8513069 5.64119,4.2382809 9.32031,4.2382809 3.53696,0 6.2802,-1.193285 8.39453,-3.6191402 2.23268,-2.5899143 3.375,-6.2072235 3.375,-10.9433594 0,-2.1095552 -0.57286,-3.8770315 -1.72656,-5.3828125 l -0.002,-0.00391 c -0.40742,-0.5197672 -0.82349,-0.9478555 -1.24024,-1.28125 a 0.58949023,0.58949023 0 0 1 -0.0898,-0.091797 c -0.7749,-0.9649627 -1.61274,-1.5823428 -2.52539,-1.9003908 a 0.58949023,0.58949023 0 0 1 0.14844,-1.144531 c 1.12042,-0.0851 2.0627,-0.464556 2.89257,-1.150391 0.85478,-0.777641 1.27735,-1.786511 1.27735,-3.1875 0,-2.180351 -0.87882,-3.983495 -2.74414,-5.552734 a 0.58949023,0.58949023 0 0 1 -0.0781,-0.08008 c -0.37324,-0.459374 -0.85148,-0.923147 -1.43164,-1.384766 l -0.004,-0.0039 c -2.0297,-1.580544 -4.29591,-2.355469 -6.87891,-2.355469 z m 21.88086,0.84375 c -1.18241,0 -2.1652,0.375391 -3.04883,1.164063 -0.88251,0.787676 -1.65724,2.012045 -2.2832,3.699218 -0.92071,2.644056 -1.45995,6.321543 -1.58399,11.0039066 a 0.58949023,0.58949023 0 0 1 0,0.00781 c -0.015,0.3746141 -0.0234,0.9719562 -0.0234,1.78125 0,3.5039855 0.26455,6.7232241 0.78906,9.6542969 0.68886,3.5605465 1.90327,5.9357667 3.53515,7.2128906 a 0.58949023,0.58949023 0 0 1 0.0937,0.091797 c 0.52971,0.6474195 1.06059,1.1234445 1.58204,1.4394535 1.22172,0.733034 3.61319,1.183593 7.08398,1.183593 3.20574,0 5.6671,-0.513019 7.38281,-1.472656 a 0.58949023,0.58949023 0 0 1 0,-0.002 c 2.3744,-1.3255833 3.51953,-3.4635113 3.51953,-6.7089844 0,-1.6024123 -0.56572,-2.7951567 -1.77148,-3.7597656 l -0.13672,-0.0976563 a 0.58949023,0.58949023 0 0 1 -0.12695,-0.12304687 c -0.2693,-0.35434597 -0.57462,-0.67361789 -0.91406,-0.95703126 -1.16674,-0.93771062 -2.63831,-1.41406252 -4.50391,-1.41406252 -0.65679,0 -1.27203,0.05168 -1.84375,0.1542969 a 0.58949023,0.58949023 0 0 1 -0.68945,-0.6523438 c 0.23148,-1.8827467 0.34765,-3.8126058 0.34765,-5.7910156 0,-0.4716105 -0.0158,-1.1644107 -0.0469,-2.0664066 v -0.002 c -0.15455,-4.136848 -0.79319,-7.336267 -1.86328,-9.583984 -0.64396,-1.30289 -1.36915,-2.233393 -2.14649,-2.816406 a 0.58949023,0.58949023 0 0 1 -0.11328,-0.109375 c -0.98642,-1.276541 -2.02332,-1.835938 -3.23828,-1.835938 z m -21.88086,0.320313 c 2.27887,0 4.35689,0.715975 6.15625,2.11914 a 0.58949023,0.58949023 0 0 1 0.002,0.002 c 1.71173,1.346118 2.63867,3.030341 2.63867,4.919922 0,0.935984 -0.2756,1.751874 -0.87695,2.291016 a 0.58949023,0.58949023 0 0 1 -0.002,0.002 c -0.63584,0.561032 -1.44997,0.859001 -2.34766,0.876953 a 0.58949023,0.58949023 0 0 1 -0.0117,0 c -0.54416,0 -1.10171,-0.181945 -1.70117,-0.490234 a 0.58949023,0.58949023 0 0 1 -0.004,-0.002 c -0.88393,-0.463008 -1.97213,-0.705078 -3.29102,-0.705078 -1.05343,0 -1.94699,0.454518 -2.80469,1.498046 a 0.58949023,0.58949023 0 0 1 -0.002,0.002 c -0.77664,0.934847 -1.37759,2.172032 -1.7832,3.734374 a 0.58949023,0.58949023 0 0 1 0,0.002 c -0.39572,1.5067687 -0.58985,2.9111665 -0.58985,4.2128902 0,1.7848751 0.34241,3.4164315 1.02539,4.9160157 0.54974,1.19946357 1.28153,1.97069104 2.22071,2.40625 a 0.58949023,0.58949023 0 0 1 0.0156,0.00781 c 0.55309,0.2765456 1.09129,0.40625 1.63672,0.40625 0.29052,0 0.58098,-0.038421 0.87695,-0.1191406 a 0.58949023,0.58949023 0 0 1 0.0156,-0.00391 c 0.84986,-0.2056123 1.39817,-0.5962656 1.76953,-1.2109375 a 0.58949023,0.58949023 0 0 1 0.008,-0.0136719 c 0.19259,-0.30091407 0.28125,-0.60619229 0.28125,-0.97070312 1e-5,-0.33546733 -0.0983,-0.7034518 -0.32226,-1.1152344 -0.10553,-0.1725114 -0.57355,-0.6927495 -1.33594,-1.3789062 a 0.58949023,0.58949023 0 0 1 -0.006,-0.00391 c -0.836,-0.772907 -1.4362,-1.3663101 -1.82227,-1.8027343 a 0.58949023,0.58949023 0 0 1 -0.0117,-0.013672 c -0.65031,-0.78371 -1.05273,-1.4740684 -1.05273,-2.2070313 0,-0.646443 0.3978,-1.2141247 0.9707,-1.6230468 1.15454,-0.8548049 2.93147,-1.1933594 5.36524,-1.1933594 1.37923,0 2.61327,0.7092619 3.5664,1.96875 0.98746,1.2949246 1.48047,2.8784291 1.48047,4.671875 0,4.3432337 -1.00077,7.7588659 -3.07422,10.1640625 a 0.58949023,0.58949023 0 0 1 -0.002,0.00195 c -1.85947,2.1417089 -4.42511,3.228516 -7.5293,3.228516 -3.32885,0 -6.21846,-1.3452176 -8.53125,-3.9511722 -2.60688,-2.903996 -3.8789,-7.05285171 -3.8789,-12.3515626 v -0.7519531 a 0.58949023,0.58949023 0 0 1 0,-0.011719 c 0.11127,-5.5476574 1.48553,-9.9278124 4.17773,-13.0605464 a 0.58949023,0.58949023 0 0 1 0.002,-0.002 c 2.53514,-2.922694 5.49585,-4.449218 8.77148,-4.449218 z m 21.88086,0.845703 c 0.66409,0 1.29384,0.302334 1.82812,0.804687 0.53429,0.502353 1.00317,1.204803 1.44532,2.105469 a 0.58949023,0.58949023 0 0 1 0.002,0.0039 c 1.0284,2.139732 1.5899,5.167492 1.74805,9.121094 a 0.58949023,0.58949023 0 0 1 0,0.0039 c 0.0314,0.910134 0.0469,1.5833421 0.0469,2.0351565 0,2.6405365 -0.197,5.1527526 -0.59375,7.5332031 -0.13407,0.815706 -0.26958,1.77149485 -0.4043,2.7167969 l 1.85157,-0.84179687 c 1.14096,-0.52014995 2.37239,-0.77929688 3.66992,-0.77929688 1.50307,0 2.79079,0.37538605 3.78711,1.15820313 a 0.58949023,0.58949023 0 0 1 0.008,0.003906 c 0.86092,0.69606548 1.32031,1.70688028 1.32031,2.85156248 0,2.6097587 -0.99297,4.6089617 -2.92773,5.6972656 a 0.58949023,0.58949023 0 0 1 -0.002,0.00195 c -1.62613,0.9072043 -3.88851,1.3164066 -6.80664,1.3164066 -3.08921,0 -5.19123,-0.2691928 -6.4668,-1.0195316 a 0.58949023,0.58949023 0 0 1 -0.0195,-0.011719 c -1.74054,-1.1125047 -2.84049,-3.4111878 -3.4961,-6.7851562 a 0.58949023,0.58949023 0 0 1 -0.002,-0.00781 c -0.50793,-2.80945417 -0.76172,-5.9493415 -0.76172,-9.4179688 0,-0.7512109 0.007,-1.3209821 0.0234,-1.7265625 v -0.00781 c 0.12641,-4.5800621 0.61712,-8.1188361 1.51172,-10.6562501 a 0.58949023,0.58949023 0 0 1 0.004,-0.01172 c 0.47996,-1.285305 1.04607,-2.283804 1.7461,-2.988281 0.70002,-0.704477 1.56382,-1.099609 2.48828,-1.099609 z m -20.14649,10.505859 c 1.08345,0 2.01082,0.182875 2.76563,0.587891 a 0.58949023,0.58949023 0 0 1 0.0234,0.01367 c 0.10691,0.06415 0.32211,0.168299 0.61914,0.287109 a 0.58949023,0.58949023 0 0 1 -0.21094,1.136719 c -2.1868,0.03059 -3.87446,0.334072 -5.04297,0.861328 a 0.58949023,0.58949023 0 0 1 -0.75781,-0.824219 c 0.1793,-0.322747 0.41288,-0.64364 0.69336,-0.974609 l 0.002,-0.002 c 0.53275,-0.656202 1.18047,-1.085938 1.9082,-1.085938 z m -3.625,8.7812501 a 0.58949023,0.58949023 0 0 1 0.66407,0.1191407 l 0.0469,0.046875 a 0.58949023,0.58949023 0 0 1 0.043,0.044922 c 0.30039,0.3719153 0.7718,0.8670125 1.40234,1.4667969 a 0.58949023,0.58949023 0 0 1 0.0234,0.023437 c 0.4724,0.502864 0.98131,0.9994454 1.53125,1.4882812 a 0.58949023,0.58949023 0 0 1 0.15625,0.2226563 l 0.0469,0.1171875 a 0.58949023,0.58949023 0 0 1 0.043,0.21875 c 0,0.11373904 -0.061,0.28313907 -0.17383,0.42773438 -0.24403,0.33102022 -0.59914,0.52234019 -1.01172,0.63085937 -0.19789,0.0580104 -0.39874,0.09375 -0.59961,0.09375 -0.30991,0 -0.60946,-0.1149521 -0.9043,-0.234375 h -0.0117 a 0.58949023,0.58949023 0 0 1 -0.01,-0.005859 c -0.0788,-0.0326737 -0.16558,-0.0221816 -0.24219,-0.0625 l 0.23438,0.0585937 a 0.58949023,0.58949023 0 0 1 -0.48829,-0.27734374 c -0.10264,-0.17108433 -0.17665,-0.31629119 -0.23242,-0.47851563 -0.47303,-0.99695205 -0.76033,-2.10474655 -0.85742,-3.31835935 a 0.58949023,0.58949023 0 0 1 0.33984,-0.5820313 z m -1.30078,19.2226559 c -2.73975,0 -5.10059,1.03868 -7.19922,3.197266 a 0.58949023,0.58949023 0 0 1 -0.006,0.0059 c -2.05905,2.059039 -3.0625,4.491644 -3.0625,7.417969 0,1.802472 0.38896,3.373381 1.14843,4.753906 a 0.58949023,0.58949023 0 0 1 0.008,0.002 c 0.13575,0.271496 0.88017,1.16484 2.13282,2.371093 a 0.58949023,0.58949023 0 0 1 0.0215,0.01953 c 0.4838,0.514034 1.1474,1.156531 1.98438,1.916016 a 0.58949023,0.58949023 0 0 1 0.006,0.0059 l 2.57812,2.416015 a 0.58949023,0.58949023 0 0 1 0.0254,0.02344 l 0.40039,0.421875 a 0.58949023,0.58949023 0 0 1 0.0176,0.01953 c 0.58092,0.668458 1.02588,1.232479 1.3418,1.708984 0.31591,0.476506 0.5274,0.834863 0.55859,1.28711 a 0.58949023,0.58949023 0 0 1 -1.09375,0.34375 c 0.10911,0.181831 0.20316,0.198062 0.23828,0.21289 0.0351,0.01483 0.0354,0.0123 0.0234,0.0098 -0.0239,-0.0051 -0.10419,-0.01673 -0.2168,-0.02539 -0.22521,-0.01732 -0.58569,-0.02734 -1.0625,-0.02734 -0.7676,0 -1.73698,-0.178379 -2.96679,-0.513671 h -0.002 c -1.48933,-0.39907 -2.63313,-0.587891 -3.36523,-0.587891 -0.89965,0 -1.45875,0.228819 -1.83203,0.642578 -0.37329,0.413759 -0.60352,1.09174 -0.60352,2.121094 0,2.227932 0.89792,4.088786 2.79688,5.720703 a 0.58949023,0.58949023 0 0 1 0.0703,0.07227 c 0.82919,1.003758 2.00742,1.921209 3.55078,2.738281 a 0.58949023,0.58949023 0 0 1 0.0117,0.01563 c 2.58251,1.39279 4.98425,2.074219 7.2168,2.074219 2.72327,0 5.0957,-1.0403 7.22656,-3.201172 a 0.58949023,0.58949023 0 0 1 0.0273,-0.0059 c 2.40386,-2.413926 3.55469,-4.921896 3.55469,-7.601562 0,-2.403643 -0.96155,-4.882245 -2.96484,-7.464844 l -0.002,-0.002 c -0.81696,-1.013429 -2.19868,-2.4916 -4.1289,-4.40625 a 0.58949023,0.58949023 0 0 1 -0.0117,-0.01172 C 126.93188,30.043655 126.3055,29.417054 125.60742,28.75 l 0.2207,0.132812 c -0.19573,-0.06524 -0.40156,-0.271164 -0.46679,-0.466796 l 0.14258,0.230468 c -0.51605,-0.51605 -0.82677,-0.830051 -1.00977,-1.226562 a 0.58949023,0.58949023 0 0 1 -0.0547,-0.246094 c 0,-0.06114 -0.007,-0.09643 -0.006,-0.0918 a 0.58949023,0.58949023 0 0 1 -0.0176,-0.142578 c 0,-0.415282 0.066,-0.79824 0.30078,-1.121094 a 0.58949023,0.58949023 0 0 1 0.12304,-0.123047 c 0.22861,-0.171451 0.51989,-0.259765 0.79883,-0.259765 0.56385,0 1.18862,0.167635 1.93164,0.464844 1.42168,0.56561 2.48851,0.824218 3.08789,0.824218 0.90869,0 1.49713,-0.292484 1.97266,-0.939453 0.2982,-0.464827 0.46289,-1.055609 0.46289,-1.824218 0,-1.747801 -0.74769,-3.36822 -2.34961,-4.94336 l -0.41797,-0.351562 a 0.58949023,0.58949023 0 0 1 -0.0566,-0.05469 l -0.69726,-0.765625 c -2.1148,-1.917924 -4.91514,-2.886719 -8.50782,-2.886719 z m 26.71289,1.125 c -1.1824,0 -2.1652,0.375391 -3.04882,1.164063 -0.88252,0.787676 -1.65724,2.012044 -2.28321,3.699219 -0.92061,2.643823 -1.458,6.321382 -1.58203,11.003906 a 0.58949023,0.58949023 0 0 1 0,0.0078 c -0.015,0.374536 -0.0234,0.973909 -0.0234,1.783204 0,3.504201 0.26264,6.721472 0.78711,9.652343 0.68887,3.560588 1.90349,5.937882 3.53516,7.214844 a 0.58949023,0.58949023 0 0 1 0.0937,0.0918 c 0.52936,0.646999 1.05978,1.121011 1.58203,1.4375 1.22151,0.732909 3.61514,1.183594 7.08594,1.183594 3.20574,0 5.66499,-0.512932 7.38086,-1.472657 a 0.58949023,0.58949023 0 0 1 0,-0.002 c 2.37471,-1.325757 3.52148,-3.461784 3.52148,-6.707031 0,-1.601972 -0.56773,-2.797153 -1.77344,-3.761719 l -0.13671,-0.09766 a 0.58949023,0.58949023 0 0 1 -0.12696,-0.123047 c -0.26948,-0.354583 -0.57253,-0.67156 -0.91211,-0.955078 -1.16679,-0.937759 -2.64063,-1.416016 -4.50586,-1.416016 -0.65677,0 -1.27202,0.05168 -1.84375,0.154297 a 0.58949023,0.58949023 0 0 1 -0.68945,-0.652344 c 0.23149,-1.882744 0.34766,-3.812604 0.34766,-5.791015 0,-0.471618 -0.0158,-1.162438 -0.0469,-2.064453 v -0.002 c -0.15455,-4.137039 -0.7914,-7.338569 -1.86133,-9.585938 -0.64395,-1.30289 -1.36914,-2.233394 -2.14648,-2.816406 a 0.58949023,0.58949023 0 0 1 -0.11328,-0.109375 c -0.98621,-1.276266 -2.02526,-1.835938 -3.24024,-1.835938 z M 121.06445,16.125 c 3.25866,0 5.86276,0.842754 7.69922,2.578125 1.28594,1.20327 1.99219,2.59305 1.99219,4.085937 0,0.440625 -0.0657,0.834929 -0.27539,1.175782 a 0.58949023,0.58949023 0 0 1 -0.0117,0.01758 c -0.13951,0.209248 -0.33719,0.29946 -0.5,0.345703 -0.16281,0.04624 -0.31687,0.05859 -0.48437,0.05859 -0.63277,0 -1.40408,-0.266936 -2.62891,-0.744141 a 0.58949023,0.58949023 0 0 1 -0.006,-0.002 c -0.91932,-0.370694 -1.7167,-0.542969 -2.38281,-0.542969 -0.67323,0 -1.19239,0.205059 -1.66602,0.646485 -0.47291,0.502188 -0.7215,1.166372 -0.72266,2.111328 l 0.0195,0.261719 c 0.0221,0.180802 0.22402,0.645384 0.67578,1.240234 0.45175,0.59485 1.13198,1.33662 2.0332,2.207031 a 0.58949023,0.58949023 0 0 1 0.002,0.002 c 2.29085,2.243765 3.85212,3.895903 4.71875,5.007813 1.78971,2.28953 2.72852,4.55082 2.72852,6.765625 0,2.387165 -1.12293,4.673703 -3.24609,6.796875 -1.83822,1.869264 -4.00565,2.847656 -6.39649,2.847656 -2.07965,0 -4.30749,-0.66431 -6.68164,-1.947266 l -0.002,-0.002 c -2.98398,-1.606234 -4.625,-3.762194 -4.625,-6.333984 0,-0.402287 0.0563,-0.766845 0.27148,-1.085938 0.2152,-0.319092 0.62597,-0.511718 0.99805,-0.511718 0.73327,0 1.72095,0.185334 3.05664,0.535156 a 0.58949023,0.58949023 0 0 1 0.01,0.002 c 1.37665,0.382401 2.47951,0.564453 3.26758,0.564453 1.23337,0 2.10991,-0.191906 2.60742,-0.478516 0.49752,-0.286609 0.67188,-0.587981 0.67188,-1.160156 0,-0.773803 -0.67072,-2.120232 -2.19336,-3.826172 l -0.002,-0.002 c -0.84888,-0.939645 -2.27821,-2.32445 -4.27149,-4.130859 a 0.58949023,0.58949023 0 0 1 -0.006,-0.0059 c -0.80068,-0.745731 -1.41957,-1.339407 -1.86328,-1.787109 -0.22185,-0.223851 -0.39898,-0.412032 -0.53711,-0.568359 -0.1352,-0.153021 -0.22835,-0.254683 -0.3164,-0.417969 l -0.002,-0.0039 c -0.69127,-1.249285 -1.03515,-2.675189 -1.03515,-4.244141 0,-2.548287 0.93676,-4.790273 2.7539,-6.607422 1.82213,-1.869086 3.97377,-2.847656 6.34961,-2.847656 z m 26.71289,1.125 c 0.66409,0 1.29384,0.302335 1.82813,0.804688 0.53428,0.502352 1.00317,1.204801 1.44531,2.105468 a 0.58949023,0.58949023 0 0 1 0.002,0.0039 c 1.02841,2.139733 1.58991,5.167491 1.74805,9.121094 a 0.58949023,0.58949023 0 0 1 0,0.0039 c 0.0314,0.910167 0.0469,1.585304 0.0469,2.03711 0,2.640536 -0.19703,5.150853 -0.59375,7.53125 -0.13392,0.814727 -0.26824,1.771277 -0.40235,2.716797 l 1.85156,-0.841797 c 1.14072,-0.520037 2.37046,-0.779297 3.66797,-0.779297 1.50309,0 2.7908,0.375387 3.78711,1.158203 a 0.58949023,0.58949023 0 0 1 0.008,0.0039 c 0.86093,0.696067 1.32031,1.706884 1.32031,2.851563 0,2.609446 -0.99085,4.60887 -2.92578,5.697265 a 0.58949023,0.58949023 0 0 1 -0.002,0.002 c -1.62596,0.90712 -3.89018,1.318359 -6.80859,1.318359 -3.08946,0 -5.19169,-0.271421 -6.4668,-1.021484 a 0.58949023,0.58949023 0 0 1 -0.0195,-0.01172 c -1.74053,-1.112505 -2.84049,-3.411188 -3.49609,-6.785156 a 0.58949023,0.58949023 0 0 1 -0.002,-0.0078 c -0.50795,-2.809668 -0.75976,-5.947612 -0.75976,-9.416015 0,-0.751211 0.007,-1.322817 0.0234,-1.728516 v -0.0078 c 0.12641,-4.579892 0.61507,-8.118571 1.50976,-10.65625 a 0.58949023,0.58949023 0 0 1 0.004,-0.01172 c 0.47996,-1.285304 1.04607,-2.283805 1.74609,-2.988282 0.70002,-0.704476 1.56382,-1.099609 2.48828,-1.099609 z"
     transform="scale(1.2678218,0.7887544)"
     inkscape:label="text4575" /><path
     style="fill:#e2e6f4;fill-opacity:1;stroke:none;stroke-width:0;stroke-dasharray:none;paint-order:markers stroke fill"
     d="m 50.160128,17.26264 c -3.392712,-0.913579 -5.151637,-3.568791 -4.610026,-6.959137 0.09912,-0.6204854 0.371175,-1.5317935 0.60456,-2.0251292 0.729385,-1.5417939 2.686404,-2.9877969 4.659215,-3.442603 2.006698,-0.4626186 4.547633,0.035174 5.75712,1.1278723 0.582079,0.5258736 0.66813,0.6936981 0.624236,1.2174364 -0.04312,0.5144673 -0.149524,0.6556486 -0.694959,0.9220798 -0.609486,0.2977186 -0.702209,0.2999899 -1.727962,0.042329 -2.299948,-0.5777284 -3.522774,-0.1845787 -4.349781,1.3984945 -0.921592,1.7641302 -0.472009,3.9853362 0.942513,4.6565712 1.211001,0.574658 2.855304,0.236412 2.953578,-0.607574 0.04351,-0.37366 -0.07442,-0.53345 -0.677266,-0.91766 -2.287054,-1.457603 -2.199742,-2.099821 0.333874,-2.455789 1.635634,-0.2298039 2.519137,-0.02194 3.322853,0.781776 0.731406,0.731406 0.875555,1.528838 0.521087,2.882646 -0.449438,1.71652 -1.700852,2.909942 -3.546475,3.382126 -1.238294,0.316805 -2.92854,0.315392 -4.112567,-0.0034 z"
     id="path5617"
     transform="matrix(2.291029,0,0,2.0902931,37.193535,-28.772756)" /><path
     style="fill:#e2e6f4;fill-opacity:1;stroke:none;stroke-width:0;stroke-dasharray:none;paint-order:markers stroke fill"
     d="m 64.483957,17.28927 c -1.110127,-0.29902 -1.526045,-0.618603 -2.035221,-1.563826 -0.6111,-1.134431 -0.875917,-2.535804 -0.875917,-4.635213 0,-3.8036596 1.112472,-6.0967997 2.956754,-6.0947612 1.426544,0.00158 2.420925,1.4215563 2.725015,3.8913314 0.15822,1.2850408 0.141619,1.8155488 -0.103982,3.3228768 -0.160744,0.986534 -0.259856,1.826104 -0.220249,1.865711 0.03961,0.03961 0.265685,-0.0016 0.502395,-0.09162 2.35831,-0.896628 5.204028,-0.338076 5.204028,1.021436 0,1.252476 -0.958639,2.026413 -2.900262,2.341464 -1.449491,0.235197 -4.281157,0.204252 -5.252561,-0.0574 z"
     id="path5619"
     transform="matrix(2.291029,0,0,2.0902931,37.193535,-28.772756)" /><path
     style="fill:#e2e6f4;fill-opacity:1;stroke:none;stroke-width:0;stroke-dasharray:none;paint-order:markers stroke fill"
     d="m 65.641858,32.755346 c -0.96215,-0.161625 -1.465904,-0.4625 -2.03705,-1.216664 -0.816701,-1.078401 -1.04236,-2.169646 -1.04236,-5.040649 0,-3.1421 0.255146,-4.222882 1.248262,-5.287555 0.540861,-0.579832 0.762928,-0.694386 1.479571,-0.763247 0.735714,-0.07069 0.913309,-0.02203 1.393209,0.381783 1.404227,1.18158 1.917521,4.062548 1.299402,7.293166 -0.138413,0.723417 -0.230098,1.336865 -0.203746,1.363217 0.02635,0.02635 0.425321,-0.07169 0.886596,-0.217879 1.281299,-0.406066 3.228065,-0.387825 4.045325,0.03791 0.875682,0.456162 1.077544,1.03508 0.65935,1.890939 -0.391406,0.801034 -1.312726,1.318903 -2.765819,1.55465 -1.257251,0.203974 -3.761269,0.206161 -4.96274,0.0043 z"
     id="path5621"
     transform="matrix(2.291029,0,0,2.0902931,37.193535,-28.772756)" /><path
     style="fill:#e2e6f4;fill-opacity:1;stroke:none;stroke-width:0;stroke-dasharray:none;paint-order:markers stroke fill"
     d="m 49.694394,32.692067 c -2.185478,-0.501082 -3.816184,-1.419957 -4.133043,-2.328898 -0.154072,-0.441971 -0.142387,-0.593512 0.06149,-0.797385 0.215958,-0.215959 0.465588,-0.223235 1.757531,-0.05122 2.772405,0.36912 4.091848,0.224826 4.091848,-0.447484 0,-0.457387 -1.26249,-1.57499 -3.145396,-2.784421 -2.055344,-1.320191 -2.442049,-1.760238 -2.442049,-2.778903 0,-1.325924 0.743628,-2.249249 2.45509,-3.048359 0.896122,-0.418414 1.205545,-0.473206 2.624405,-0.46472 0.981538,0.0059 1.9757,0.119303 2.55055,0.291016 1.775777,0.530439 2.972118,1.78214 2.323372,2.430885 -0.219758,0.219758 -0.384982,0.218051 -1.38699,-0.01433 -2.11361,-0.490179 -3.148299,-0.241572 -3.148299,0.756451 0,0.436281 0.222975,0.650247 1.934885,1.856702 2.90785,2.049284 3.945048,3.384684 3.563229,4.587687 -0.06682,0.210537 -0.456216,0.74064 -0.86532,1.178005 -1.446542,1.54647 -3.839487,2.165661 -6.2413,1.614978 z"
     id="path5623"
     transform="matrix(2.291029,0,0,2.0902931,37.193535,-28.772756)" /></g></g>
</g>
</svg>
